<svg width="960" height="640" viewBox="0 0 960 640" fill="none" xmlns="http://www.w3.org/2000/svg" shape-rendering="crispEdges">
  <rect width="960" height="640" fill="#140F2C"/>
  <rect width="960" height="360" fill="#1C1840"/>
  <rect y="360" width="960" height="280" fill="#241D4D"/>
  <rect x="96" y="64" width="32" height="32" fill="#FFD166"/>
  <rect x="128" y="64" width="32" height="32" fill="#FFD166"/>
  <rect x="96" y="96" width="32" height="32" fill="#FFD166"/>
  <rect x="128" y="96" width="32" height="32" fill="#FFD166"/>
  <rect x="736" y="80" width="16" height="16" fill="#A8DADC"/>
  <rect x="784" y="112" width="16" height="16" fill="#A8DADC"/>
  <rect x="816" y="64" width="16" height="16" fill="#A8DADC"/>
  <rect x="848" y="96" width="16" height="16" fill="#A8DADC"/>
  <rect x="208" y="128" width="80" height="16" fill="#2FCA8A"/>
  <rect x="224" y="112" width="48" height="16" fill="#2FCA8A"/>
  <rect x="672" y="152" width="96" height="16" fill="#2FCA8A"/>
  <rect x="688" y="136" width="64" height="16" fill="#2FCA8A"/>
  <rect x="80" y="256" width="64" height="104" fill="#100B21"/>
  <rect x="144" y="224" width="96" height="136" fill="#100B21"/>
  <rect x="240" y="272" width="48" height="88" fill="#100B21"/>
  <rect x="720" y="232" width="64" height="128" fill="#100B21"/>
  <rect x="784" y="184" width="96" height="176" fill="#100B21"/>
  <rect x="880" y="264" width="40" height="96" fill="#100B21"/>
  <rect x="96" y="272" width="16" height="16" fill="#F28482"/>
  <rect x="96" y="304" width="16" height="16" fill="#F28482"/>
  <rect x="160" y="240" width="16" height="16" fill="#FFD166"/>
  <rect x="192" y="240" width="16" height="16" fill="#FFD166"/>
  <rect x="160" y="272" width="16" height="16" fill="#FFD166"/>
  <rect x="736" y="248" width="16" height="16" fill="#FFD166"/>
  <rect x="800" y="200" width="16" height="16" fill="#F28482"/>
  <rect x="832" y="200" width="16" height="16" fill="#F28482"/>
  <rect x="800" y="232" width="16" height="16" fill="#F28482"/>
  <rect x="0" y="360" width="960" height="16" fill="#F28482"/>
  <rect x="0" y="376" width="960" height="8" fill="#FFD166"/>
  <rect x="112" y="392" width="736" height="24" fill="#17112D"/>
  <rect x="144" y="416" width="672" height="96" fill="#2C2458"/>
  <rect x="176" y="440" width="224" height="56" fill="#3A3071"/>
  <rect x="560" y="440" width="224" height="56" fill="#3A3071"/>
  <rect x="400" y="424" width="160" height="152" fill="#0B0915"/>
  <rect x="424" y="448" width="112" height="80" fill="#241B49"/>
  <rect x="440" y="464" width="80" height="48" fill="#1A5167"/>
  <rect x="448" y="472" width="24" height="24" fill="#2FCA8A"/>
  <rect x="472" y="472" width="24" height="24" fill="#FFD166"/>
  <rect x="496" y="472" width="16" height="24" fill="#F28482"/>
  <rect x="432" y="536" width="96" height="16" fill="#120F24"/>
  <rect x="456" y="552" width="48" height="24" fill="#120F24"/>
  <rect x="336" y="520" width="288" height="16" fill="#120F24"/>
  <rect x="184" y="520" width="128" height="16" fill="#120F24"/>
  <rect x="648" y="520" width="128" height="16" fill="#120F24"/>
  <rect x="208" y="456" width="80" height="16" fill="#FFD166"/>
  <rect x="208" y="480" width="112" height="16" fill="#A8DADC"/>
  <rect x="672" y="456" width="80" height="16" fill="#F28482"/>
  <rect x="672" y="480" width="64" height="16" fill="#2FCA8A"/>
  <rect x="64" y="552" width="832" height="40" fill="#130F25"/>
  <rect x="96" y="592" width="768" height="16" fill="#0A0815"/>
  <rect x="432" y="280" width="16" height="144" fill="#160F2E"/>
  <rect x="448" y="264" width="64" height="16" fill="#160F2E"/>
  <rect x="512" y="280" width="16" height="112" fill="#160F2E"/>
  <rect x="352" y="288" width="80" height="64" fill="#EAC6A3"/>
  <rect x="368" y="304" width="48" height="32" fill="#FACDA6"/>
  <rect x="352" y="352" width="80" height="88" fill="#19A974"/>
  <rect x="336" y="440" width="48" height="64" fill="#100B21"/>
  <rect x="400" y="440" width="40" height="64" fill="#100B21"/>
  <rect x="496" y="288" width="96" height="96" fill="#EAC6A3"/>
  <rect x="512" y="304" width="48" height="32" fill="#FACDA6"/>
  <rect x="496" y="384" width="96" height="88" fill="#3D6AF2"/>
  <rect x="496" y="472" width="48" height="48" fill="#100B21"/>
  <rect x="560" y="472" width="32" height="48" fill="#100B21"/>
  <rect x="336" y="304" width="16" height="16" fill="#100B21"/>
  <rect x="400" y="304" width="16" height="16" fill="#100B21"/>
  <rect x="512" y="304" width="16" height="16" fill="#100B21"/>
  <rect x="560" y="304" width="16" height="16" fill="#100B21"/>
  <rect x="368" y="336" width="48" height="16" fill="#F28482"/>
  <rect x="520" y="336" width="40" height="16" fill="#F28482"/>
  <rect x="160" y="184" width="32" height="32" fill="#F28482"/>
  <rect x="176" y="168" width="32" height="16" fill="#F28482"/>
  <rect x="752" y="176" width="32" height="32" fill="#FFD166"/>
  <rect x="768" y="160" width="32" height="16" fill="#FFD166"/>
  <rect x="272" y="176" width="16" height="16" fill="#A8DADC"/>
  <rect x="640" y="112" width="16" height="16" fill="#A8DADC"/>
  <rect x="288" y="176" width="16" height="16" fill="#A8DADC"/>
  <rect x="624" y="112" width="16" height="16" fill="#A8DADC"/>
  <rect x="320" y="144" width="320" height="8" fill="#FFD166"/>
  <rect x="304" y="152" width="352" height="8" fill="#F28482"/>
</svg>