<svg width="308" height="72" viewBox="0 0 308 72" fill="none" xmlns="http://www.w3.org/2000/svg" role="img" aria-labelledby="logoTitle logoDesc">
	<title id="logoTitle">Take Around logo</title>
	<desc id="logoDesc">A circular path mark with the letters T and A, followed by the Take Around wordmark.</desc>
	<rect width="72" height="72" rx="22" fill="#0F172A"/>
	<circle cx="36" cy="36" r="20" stroke="#F97316" stroke-width="8" stroke-linecap="round" stroke-dasharray="93 38"/>
	<path d="M44 18L54 22L49 31" stroke="#F97316" stroke-width="4" stroke-linecap="round" stroke-linejoin="round"/>
	<path d="M23 24H49" stroke="#F8FAFC" stroke-width="6" stroke-linecap="round"/>
	<path d="M36 24V50" stroke="#F8FAFC" stroke-width="6" stroke-linecap="round"/>
	<path d="M18 50L28.5 24L39 50" stroke="#38BDF8" stroke-width="5" stroke-linecap="round" stroke-linejoin="round"/>
	<path d="M23 39.5H34.5" stroke="#38BDF8" stroke-width="5" stroke-linecap="round"/>
	<path d="M99.824 47V24.9091H108.557V47H99.824ZM91.1141 32.0682V24.9091H117.159V32.0682H91.1141ZM131.348 47.4261C129.568 47.4261 127.98 47.1293 126.582 46.5355C125.184 45.9418 124.078 45.054 123.263 43.8722C122.463 42.6752 122.063 41.1837 122.063 39.3977C122.063 37.8608 122.343 36.5625 122.902 35.5028C123.461 34.4432 124.229 33.5852 125.207 32.929C126.185 32.2727 127.305 31.7855 128.567 31.4673C129.844 31.1491 131.197 30.9489 132.627 30.8665C134.185 30.7756 135.432 30.6761 136.369 30.5682C137.305 30.4453 137.984 30.2685 138.405 30.0376C138.825 29.7919 139.036 29.4354 139.036 28.968V28.8828C139.036 28.1967 138.779 27.6634 138.266 27.2827C137.768 26.902 137.06 26.7116 136.142 26.7116C135.146 26.7116 134.344 26.9304 133.735 27.3679C133.141 27.8054 132.78 28.3814 132.652 29.0959H124.725C124.867 27.4595 125.398 25.9737 126.316 24.6385C127.237 23.3033 128.561 22.2436 130.288 21.4595C132.031 20.6754 134.151 20.2834 136.646 20.2834C138.447 20.2834 140.167 20.4979 141.808 20.9268C143.45 21.3415 144.908 21.9779 146.182 22.8359C147.457 23.6797 148.459 24.7486 149.189 26.0426C149.92 27.3224 150.285 28.8395 150.285 30.5938V47H142.011V43.6165H141.807C141.311 44.5606 140.665 45.3551 139.867 46C139.084 46.6307 138.163 47.108 137.103 47.4318C136.06 47.7557 134.808 47.9176 133.347 47.9176L131.348 47.4261ZM134.142 41.5469C134.86 41.5469 135.547 41.4006 136.203 41.108C136.86 40.8002 137.405 40.3679 137.841 39.8111C138.279 39.2391 138.497 38.5575 138.497 37.7663V35.4602C138.273 35.5682 137.999 35.6676 137.675 35.7585C137.353 35.8494 136.998 35.9325 136.61 36.0071C136.223 36.0817 135.817 36.1491 135.393 36.2095C134.97 36.2699 134.551 36.3253 134.137 36.375C133.322 36.4744 132.635 36.6413 132.074 36.875C131.516 37.1087 131.09 37.4123 130.798 37.786C130.507 38.1449 130.362 38.5774 130.362 39.0838C130.362 39.83 130.627 40.3951 131.156 40.7791C131.687 41.1632 132.349 41.4225 133.142 41.5469ZM166.668 47.4048C164.541 47.4048 162.713 46.9347 161.185 45.9943C159.658 45.0398 158.481 43.6818 157.654 41.9205C156.84 40.1591 156.434 38.0455 156.434 35.5795C156.434 33.0284 156.848 30.875 157.675 29.1193C158.516 27.3494 159.701 26.0085 161.227 25.0966C162.769 24.1847 164.576 23.7287 166.647 23.7287C168.312 23.7287 169.745 23.988 170.945 24.5064C172.16 25.0249 173.142 25.7528 173.89 26.6903C174.652 27.6136 175.19 28.6811 175.501 29.8928H175.757V16H184.49V47H175.821V42.1634H175.501C175.16 43.3603 174.601 44.4201 173.826 45.3423C173.064 46.2504 172.075 46.9649 170.86 47.4858C169.659 48.0066 168.262 48.2791 166.668 48.3033V47.4048ZM169.589 40.6072C170.476 40.6072 171.241 40.3494 171.884 39.8338C172.539 39.3182 173.045 38.5774 173.401 37.6115C173.77 36.6456 173.955 35.4872 173.955 34.1364C173.955 32.7855 173.775 31.6378 173.413 30.6932C173.058 29.7486 172.553 29.0284 171.898 28.5327C171.256 28.0369 170.486 27.7891 169.589 27.7891C168.673 27.7891 167.889 28.0455 167.24 28.5582C166.591 29.071 166.093 29.7976 165.746 30.7379C165.398 31.6783 165.224 32.8111 165.224 34.1364C165.224 35.4616 165.398 36.6058 165.746 37.5682C166.108 38.5161 166.611 39.2507 167.254 39.7727C167.912 40.2947 168.69 40.572 169.589 40.6072ZM197.478 47L188.448 24H197.543L202.017 38.5682H202.273L206.812 24H215.843L206.812 47H197.478ZM229.725 47.4474C227.316 47.4474 225.225 46.9794 223.45 46.0433C221.689 45.0925 220.329 43.7486 219.37 42.0114C218.427 40.2599 217.955 38.1875 217.955 35.794V35.1747C217.955 32.9375 218.424 30.9446 219.359 29.196C220.307 27.4474 221.639 26.0717 223.354 25.0691C225.069 24.0523 227.085 23.5439 229.405 23.5439C231.08 23.5439 232.615 23.8033 234.007 24.3217C235.414 24.8402 236.626 25.6009 237.645 26.6037C238.665 27.5923 239.452 28.8097 240.006 30.2557C240.561 31.6875 240.839 33.3274 240.839 35.1754V37.1207H221.36V32.2479H232.799C232.785 31.4716 232.606 30.7884 232.262 30.1989C231.924 29.6094 231.448 29.1492 230.837 28.8182C230.238 28.4872 229.54 28.3217 228.745 28.3217C227.952 28.3217 227.243 28.4929 226.618 28.8352C226.002 29.1634 225.518 29.6179 225.169 30.1989C224.821 30.7798 224.635 31.446 224.614 32.1974V37.2905C224.614 38.2225 224.797 39.0206 225.161 39.6847C225.527 40.3487 226.052 40.8598 226.735 41.218C227.429 41.5762 228.257 41.7553 229.214 41.7553C229.873 41.7553 230.468 41.6644 231 41.4826C231.533 41.2865 231.988 41.0036 232.366 40.6335C232.744 40.2635 233.026 39.8104 233.211 39.2741H240.839C240.569 40.9105 239.913 42.3338 238.872 43.544C237.836 44.7396 236.481 45.6681 234.805 46.3295C233.145 46.9908 231.451 47.3639 229.725 47.4474ZM256.727 47.4261C254.947 47.4261 253.359 47.1293 251.961 46.5355C250.563 45.9418 249.457 45.054 248.642 43.8722C247.842 42.6752 247.442 41.1837 247.442 39.3977C247.442 37.8608 247.722 36.5625 248.281 35.5028C248.84 34.4432 249.608 33.5852 250.586 32.929C251.564 32.2727 252.684 31.7855 253.946 31.4673C255.223 31.1491 256.576 30.9489 258.006 30.8665C259.564 30.7756 260.811 30.6761 261.748 30.5682C262.684 30.4453 263.363 30.2685 263.784 30.0376C264.204 29.7919 264.415 29.4354 264.415 28.968V28.8828C264.415 28.1967 264.158 27.6634 263.645 27.2827C263.147 26.902 262.439 26.7116 261.521 26.7116C260.525 26.7116 259.723 26.9304 259.114 27.3679C258.52 27.8054 258.159 28.3814 258.031 29.0959H250.104C250.246 27.4595 250.777 25.9737 251.695 24.6385C252.616 23.3033 253.94 22.2436 255.667 21.4595C257.41 20.6754 259.53 20.2834 262.025 20.2834C263.826 20.2834 265.546 20.4979 267.187 20.9268C268.829 21.3415 270.287 21.9779 271.561 22.8359C272.836 23.6797 273.838 24.7486 274.568 26.0426C275.299 27.3224 275.664 28.8395 275.664 30.5938V47H267.39V43.6165H267.186C266.69 44.5606 266.044 45.3551 265.246 46C264.463 46.6307 263.542 47.108 262.482 47.4318C261.439 47.7557 260.187 47.9176 258.726 47.9176L256.727 47.4261ZM259.521 41.5469C260.239 41.5469 260.926 41.4006 261.582 41.108C262.239 40.8002 262.784 40.3679 263.22 39.8111C263.658 39.2391 263.876 38.5575 263.876 37.7663V35.4602C263.652 35.5682 263.378 35.6676 263.054 35.7585C262.732 35.8494 262.377 35.9325 261.989 36.0071C261.602 36.0817 261.196 36.1491 260.772 36.2095C260.349 36.2699 259.93 36.3253 259.516 36.375C258.701 36.4744 258.014 36.6413 257.453 36.875C256.895 37.1087 256.469 37.4123 256.177 37.786C255.886 38.1449 255.741 38.5774 255.741 39.0838C255.741 39.83 256.006 40.3951 256.535 40.7791C257.066 41.1632 257.728 41.4225 258.521 41.5469ZM280.71 47V16H289.443V47H280.71Z" fill="#0F172A"/>
</svg>